<svg width="25" height="24" fill="none" xmlns="http://www.w3.org/2000/svg"><path d="M6.962 12c0-.29.097-.567.27-.771a.858.858 0 0 1 .653-.32h8.308V3.82C16.193 1.635 14.243 0 12.5 0H3.73c-.856.001-1.677.404-2.283 1.12C.842 1.835.501 2.806.5 3.818v16.364c0 1.012.342 1.983.947 2.699.606.715 1.427 1.118 2.284 1.119h9.23c.857-.001 1.679-.404 2.284-1.12.606-.715.947-1.686.948-2.698V13.09H7.885a.858.858 0 0 1-.653-.32 1.2 1.2 0 0 1-.27-.771Z" fill="#000" fill-opacity=".4"/><path d="m24.23 11.229-4.616-5.455a.851.851 0 0 0-.647-.3.86.86 0 0 0-.641.32c-.17.2-.268.473-.27.757-.004.285.087.56.253.765l3.04 3.593h-5.157v2.182h5.156l-3.039 3.592c-.09.1-.16.22-.21.354a1.26 1.26 0 0 0-.01.848c.047.135.116.257.203.36.087.104.191.185.305.24a.799.799 0 0 0 .717-.011.94.94 0 0 0 .3-.248l4.616-5.455A1.2 1.2 0 0 0 24.5 12c0-.29-.097-.567-.27-.771Z" fill="#000" fill-opacity=".4"/></svg>