<svg width="25" height="24" fill="none" xmlns="http://www.w3.org/2000/svg"><path fill-rule="evenodd" clip-rule="evenodd" d="M12.356 0h6.366C21.904 0 24.5 2.4 24.5 5.328v13.344c0 2.94-2.596 5.328-5.805 5.328h-6.352c-3.183 0-5.791-2.388-5.791-5.316v-5.76h8.087l-2.087 1.92a.875.875 0 0 0 0 1.308c.196.18.456.264.717.264.248 0 .509-.084.705-.264l3.808-3.492a.863.863 0 0 0 0-1.308L13.974 7.86a1.07 1.07 0 0 0-1.422 0 .875.875 0 0 0 0 1.308l2.087 1.908H6.552V5.34C6.552 2.4 9.16 0 12.356 0ZM.5 12c0-.504.449-.924.987-.924h5.065v1.848H1.487C.95 12.924.5 12.516.5 12Z" fill="#000" fill-opacity=".4"/></svg>