<svg width="24" height="25" fill="none" xmlns="http://www.w3.org/2000/svg"><path fill-rule="evenodd" clip-rule="evenodd" d="M23.52 12.773c0-.85-.076-1.67-.218-2.454H12v4.641h6.458a5.52 5.52 0 0 1-2.394 3.622v3.011h3.878c2.269-2.09 3.578-5.165 3.578-8.82Z" fill="#4285F4"/><path fill-rule="evenodd" clip-rule="evenodd" d="M12 24.5c3.24 0 5.956-1.074 7.941-2.907l-3.878-3.011c-1.074.72-2.449 1.145-4.063 1.145-3.126 0-5.771-2.11-6.715-4.947h-4.01v3.11A11.995 11.995 0 0 0 12 24.5Z" fill="#34A853"/><path fill-rule="evenodd" clip-rule="evenodd" d="M5.285 14.78a7.213 7.213 0 0 1-.376-2.28c0-.791.136-1.56.376-2.28V7.11H1.276A11.995 11.995 0 0 0 0 12.5c0 1.936.464 3.769 1.276 5.389l4.01-3.11Z" fill="#FBBC05"/><path fill-rule="evenodd" clip-rule="evenodd" d="M12 5.273c1.761 0 3.343.605 4.587 1.794l3.442-3.441C17.95 1.689 15.234.5 11.999.5 7.31.5 3.25 3.19 1.276 7.111l4.009 3.11c.944-2.837 3.59-4.948 6.714-4.948Z" fill="#EA4335"/></svg>