<svg width="40" height="41" fill="none" xmlns="http://www.w3.org/2000/svg"><path d="M16.356 11.959c0 1.25 0 2.461.394 3.596C12.606 20.42 1.663 33.275.644 34.257A1.939 1.939 0 0 0 0 35.699c0 .817.5 1.606.923 2.048.635.663 3.346 3.173 3.846 2.692 1.481-1.442 1.78-1.827 2.385-2.423.913-.894-.096-2.72.221-3.461.317-.74.654-.885 1.202-1 .548-.116 1.52.279 2.279.288.798.01 1.23-.327 1.827-.884.48-.443.827-.856.836-1.5.02-.866-1.23-2.01-.298-2.924.933-.913 2.279.597 3.27.481.99-.115 2.192-1.49 2.317-2.077.125-.586-1.125-2.096-.933-2.951.067-.289.654-.962 1.096-1.058.442-.096 2.404.663 2.846.567.539-.115 1.164-.683 1.673-1 1.49.644 2.847.904 4.587.904C34.663 23.4 40 18.266 40 11.939S34.663.5 28.077.5C21.49.5 16.356 5.632 16.356 11.959Zm17.49-2.228a3.077 3.077 0 1 1-6.154 0 3.077 3.077 0 0 1 6.154 0Z" fill="#000"/></svg>