<svg width="28" height="29" fill="none" xmlns="http://www.w3.org/2000/svg"><g clip-path="url(#a)"><path d="M5.325 12.555A7.16 7.16 0 0 1 12.48 5.4a7.16 7.16 0 0 1 7.155 7.155 6.994 6.994 0 0 1-1.336 4.113l4.017 4.025c.237.246.36.572.36.923 0 .73-.536 1.292-1.283 1.292-.343 0-.686-.114-.932-.369l-4.043-4.043a6.958 6.958 0 0 1-3.938 1.213 7.16 7.16 0 0 1-7.154-7.154Zm1.863 0a5.29 5.29 0 1 0 10.582 0 5.29 5.29 0 0 0-10.582 0Z" fill="#3C3C43" fill-opacity=".6"/></g><defs><clipPath id="a"><path fill="#fff" transform="translate(0 .5)" d="M0 0h28v28H0z"/></clipPath></defs></svg>